<?xml version="1.0" encoding="utf-8"?>
<!-- Generator: Adobe Illustrator 19.2.1, SVG Export Plug-In . SVG Version: 6.00 Build 0)  -->
<svg version="1.1" id="Capa_1" xmlns="http://www.w3.org/2000/svg" xmlns:xlink="http://www.w3.org/1999/xlink" x="0px" y="0px"
	 viewBox="0 0 48 48" style="enable-background:new 0 0 48 48;" xml:space="preserve">
<style type="text/css">
	.st0{fill:#5442DC;}
</style>
<path class="st0" d="M22.6,31h3v-9.1l3.7,3.7l2.1-2.1l-7.3-7.3l-7.3,7.3l2.1,2.1l3.7-3.7V31z M24.1,43.6c-2.7,0-5.3-0.5-7.8-1.6
	c-2.4-1.1-4.6-2.5-6.4-4.3s-3.3-3.9-4.3-6.4s-1.6-5-1.6-7.8c0-2.8,0.5-5.4,1.6-7.8s2.5-4.6,4.3-6.4s3.9-3.2,6.4-4.3s5-1.6,7.8-1.6
	c2.8,0,5.4,0.5,7.8,1.6s4.5,2.5,6.4,4.3c1.8,1.8,3.2,3.9,4.3,6.4c1.1,2.4,1.6,5,1.6,7.8c0,2.7-0.5,5.3-1.6,7.8
	c-1,2.4-2.5,4.6-4.3,6.4c-1.8,1.8-3.9,3.3-6.4,4.3C29.5,43.1,26.9,43.6,24.1,43.6z M24.1,40.6c4.7,0,8.8-1.7,12-5
	c3.3-3.3,5-7.3,5-12c0-4.7-1.6-8.8-5-12.1c-3.3-3.3-7.3-5-12-5c-4.7,0-8.7,1.7-12,5s-5,7.3-5,12.1c0,4.7,1.7,8.7,5,12
	S19.4,40.6,24.1,40.6z"/>
</svg>
